<svg width="8" height="23" viewBox="0 0 8 23" fill="none" xmlns="http://www.w3.org/2000/svg">
<path d="M7.48988 18.7942C7.48988 19.805 7.09338 20.7528 6.37314 21.4628C5.66657 22.1601 4.73197 22.5424 3.73828 22.5424C3.72119 22.5424 3.70459 22.5424 3.68798 22.5419C3.50048 22.5395 3.31492 22.5224 3.1323 22.4926C2.37299 22.3671 1.66887 22.0087 1.1083 21.4535C0.412959 20.7655 0.0169487 19.8533 -0.00600133 18.886C-0.0382291 17.5202 0.674688 16.2438 1.85442 15.5543C2.18988 15.3585 2.39887 14.9948 2.39887 14.6061V1.81504C2.39887 1.29451 2.69674 0.841857 3.13132 0.619192C3.31444 0.52495 3.52196 0.472214 3.7417 0.472214C4.48196 0.472214 5.08403 1.07478 5.08403 1.81504V14.6061C5.08403 14.9948 5.29302 15.3585 5.62849 15.5543C6.77648 16.2253 7.48988 17.4665 7.48988 18.7942Z" fill="#FF6E6E"/>
<path d="M7.48989 18.7942C7.48989 19.805 7.09339 20.7528 6.37315 21.4628C5.66658 22.1601 4.73197 22.5424 3.73828 22.5424C3.72119 22.5424 3.70459 22.5424 3.68799 22.5419C3.50048 22.5395 3.31493 22.5224 3.1323 22.4926C3.89258 22.3686 4.59378 22.0141 5.1524 21.4628C5.87264 20.7528 6.26914 19.805 6.26914 18.7942C6.26914 17.4665 5.55573 16.2253 4.40774 15.5543C4.07228 15.3585 3.86329 14.9948 3.86329 14.6061V1.81504C3.86329 1.29451 3.56542 0.842345 3.13132 0.619192C3.31444 0.52495 3.52196 0.472214 3.7417 0.472214C4.48196 0.472214 5.08403 1.07478 5.08403 1.81504V14.6061C5.08403 14.9948 5.29303 15.3585 5.62849 15.5543C6.77648 16.2253 7.48989 17.4665 7.48989 18.7942Z" fill="#F44E92"/>
</svg>
